<mxfile host="app.diagrams.net" modified="2024-04-10T02:49:27.444Z" agent="Mozilla/5.0 (Windows NT 10.0; Win64; x64) AppleWebKit/537.36 (KHTML, like Gecko) Chrome/123.0.0.0 Safari/537.36" etag="fJcIvVltyUDgXDlhsUAj" version="24.2.1" type="device">
  <diagram name="Page-1" id="HN3p1EIVI-1SUxga9xJy">
    <mxGraphModel dx="1434" dy="738" grid="1" gridSize="10" guides="1" tooltips="1" connect="1" arrows="1" fold="1" page="1" pageScale="1" pageWidth="850" pageHeight="1100" math="0" shadow="0">
      <root>
        <mxCell id="0" />
        <mxCell id="1" parent="0" />
        <mxCell id="Ad5m46oeOHFFpSQFAjDd-1" value="email(unique)" style="rounded=0;whiteSpace=wrap;html=1;" vertex="1" parent="1">
          <mxGeometry x="185" y="39" width="80" height="40" as="geometry" />
        </mxCell>
        <mxCell id="Ad5m46oeOHFFpSQFAjDd-2" value="f_name" style="rounded=0;whiteSpace=wrap;html=1;" vertex="1" parent="1">
          <mxGeometry x="265" y="39" width="80" height="40" as="geometry" />
        </mxCell>
        <mxCell id="Ad5m46oeOHFFpSQFAjDd-3" value="l_name" style="rounded=0;whiteSpace=wrap;html=1;" vertex="1" parent="1">
          <mxGeometry x="345" y="39" width="80" height="40" as="geometry" />
        </mxCell>
        <mxCell id="Ad5m46oeOHFFpSQFAjDd-4" value="user_passw" style="rounded=0;whiteSpace=wrap;html=1;" vertex="1" parent="1">
          <mxGeometry x="425" y="39" width="80" height="40" as="geometry" />
        </mxCell>
        <mxCell id="Ad5m46oeOHFFpSQFAjDd-5" value="user_dob" style="rounded=0;whiteSpace=wrap;html=1;" vertex="1" parent="1">
          <mxGeometry x="505" y="39" width="80" height="40" as="geometry" />
        </mxCell>
        <mxCell id="Ad5m46oeOHFFpSQFAjDd-6" value="city" style="rounded=0;whiteSpace=wrap;html=1;" vertex="1" parent="1">
          <mxGeometry x="585" y="39" width="80" height="40" as="geometry" />
        </mxCell>
        <mxCell id="Ad5m46oeOHFFpSQFAjDd-7" value="country" style="rounded=0;whiteSpace=wrap;html=1;" vertex="1" parent="1">
          <mxGeometry x="665" y="39" width="80" height="40" as="geometry" />
        </mxCell>
        <mxCell id="Ad5m46oeOHFFpSQFAjDd-8" value="phoneNo" style="rounded=0;whiteSpace=wrap;html=1;" vertex="1" parent="1">
          <mxGeometry x="745" y="39" width="80" height="40" as="geometry" />
        </mxCell>
        <mxCell id="Ad5m46oeOHFFpSQFAjDd-9" value="state" style="rounded=0;whiteSpace=wrap;html=1;" vertex="1" parent="1">
          <mxGeometry x="825" y="39" width="80" height="40" as="geometry" />
        </mxCell>
        <mxCell id="Ad5m46oeOHFFpSQFAjDd-10" value="&lt;u&gt;userID&lt;/u&gt;" style="rounded=0;whiteSpace=wrap;html=1;" vertex="1" parent="1">
          <mxGeometry x="905" y="39" width="80" height="40" as="geometry" />
        </mxCell>
        <mxCell id="Ad5m46oeOHFFpSQFAjDd-11" value="height" style="rounded=0;whiteSpace=wrap;html=1;" vertex="1" parent="1">
          <mxGeometry x="184" y="324" width="80" height="40" as="geometry" />
        </mxCell>
        <mxCell id="Ad5m46oeOHFFpSQFAjDd-12" value="weight" style="rounded=0;whiteSpace=wrap;html=1;" vertex="1" parent="1">
          <mxGeometry x="264" y="324" width="80" height="40" as="geometry" />
        </mxCell>
        <mxCell id="Ad5m46oeOHFFpSQFAjDd-13" value="&lt;u&gt;memberID&lt;/u&gt;" style="rounded=0;whiteSpace=wrap;html=1;" vertex="1" parent="1">
          <mxGeometry x="344" y="324" width="80" height="40" as="geometry" />
        </mxCell>
        <mxCell id="Ad5m46oeOHFFpSQFAjDd-14" value="users" style="text;html=1;align=center;verticalAlign=middle;resizable=0;points=[];autosize=1;strokeColor=none;fillColor=none;fontSize=18;" vertex="1" parent="1">
          <mxGeometry x="76" y="39" width="70" height="40" as="geometry" />
        </mxCell>
        <mxCell id="Ad5m46oeOHFFpSQFAjDd-15" value="&lt;div style=&quot;font-family: Consolas, &amp;quot;Courier New&amp;quot;, monospace; line-height: 19px; white-space-collapse: preserve;&quot;&gt;&lt;font style=&quot;font-size: 18px;&quot;&gt;members&lt;/font&gt;&lt;/div&gt;" style="text;html=1;align=center;verticalAlign=middle;resizable=0;points=[];autosize=1;strokeColor=none;fillColor=none;fontSize=18;fontColor=default;" vertex="1" parent="1">
          <mxGeometry x="64" y="329" width="90" height="30" as="geometry" />
        </mxCell>
        <mxCell id="Ad5m46oeOHFFpSQFAjDd-17" value="goalID" style="rounded=0;whiteSpace=wrap;html=1;" vertex="1" parent="1">
          <mxGeometry x="185" y="110" width="80" height="40" as="geometry" />
        </mxCell>
        <mxCell id="Ad5m46oeOHFFpSQFAjDd-18" value="goal_title" style="rounded=0;whiteSpace=wrap;html=1;" vertex="1" parent="1">
          <mxGeometry x="265" y="110" width="80" height="40" as="geometry" />
        </mxCell>
        <mxCell id="Ad5m46oeOHFFpSQFAjDd-19" value="goal_description" style="rounded=0;whiteSpace=wrap;html=1;" vertex="1" parent="1">
          <mxGeometry x="345" y="110" width="80" height="40" as="geometry" />
        </mxCell>
        <mxCell id="Ad5m46oeOHFFpSQFAjDd-20" value="goal_value" style="rounded=0;whiteSpace=wrap;html=1;" vertex="1" parent="1">
          <mxGeometry x="425" y="110" width="80" height="40" as="geometry" />
        </mxCell>
        <mxCell id="Ad5m46oeOHFFpSQFAjDd-21" value="goal_start" style="rounded=0;whiteSpace=wrap;html=1;" vertex="1" parent="1">
          <mxGeometry x="505" y="110" width="80" height="40" as="geometry" />
        </mxCell>
        <mxCell id="Ad5m46oeOHFFpSQFAjDd-22" value="target_date" style="rounded=0;whiteSpace=wrap;html=1;" vertex="1" parent="1">
          <mxGeometry x="585" y="110" width="80" height="40" as="geometry" />
        </mxCell>
        <mxCell id="Ad5m46oeOHFFpSQFAjDd-23" value="achieved_date" style="rounded=0;whiteSpace=wrap;html=1;" vertex="1" parent="1">
          <mxGeometry x="665" y="110" width="80" height="40" as="geometry" />
        </mxCell>
        <mxCell id="Ad5m46oeOHFFpSQFAjDd-24" value="status" style="rounded=0;whiteSpace=wrap;html=1;" vertex="1" parent="1">
          <mxGeometry x="745" y="110" width="80" height="40" as="geometry" />
        </mxCell>
        <mxCell id="Ad5m46oeOHFFpSQFAjDd-118" style="edgeStyle=orthogonalEdgeStyle;rounded=0;orthogonalLoop=1;jettySize=auto;html=1;exitX=0.5;exitY=1;exitDx=0;exitDy=0;entryX=1;entryY=0.25;entryDx=0;entryDy=0;" edge="1" parent="1" source="Ad5m46oeOHFFpSQFAjDd-26" target="Ad5m46oeOHFFpSQFAjDd-13">
          <mxGeometry relative="1" as="geometry" />
        </mxCell>
        <mxCell id="Ad5m46oeOHFFpSQFAjDd-26" value="&lt;u&gt;memberID&lt;/u&gt;" style="rounded=0;whiteSpace=wrap;html=1;" vertex="1" parent="1">
          <mxGeometry x="825" y="110" width="80" height="40" as="geometry" />
        </mxCell>
        <mxCell id="Ad5m46oeOHFFpSQFAjDd-27" value="fitness Goals" style="text;html=1;align=center;verticalAlign=middle;resizable=0;points=[];autosize=1;strokeColor=none;fillColor=none;fontSize=18;" vertex="1" parent="1">
          <mxGeometry x="45" y="110" width="130" height="40" as="geometry" />
        </mxCell>
        <mxCell id="Ad5m46oeOHFFpSQFAjDd-28" value="speciality" style="rounded=0;whiteSpace=wrap;html=1;" vertex="1" parent="1">
          <mxGeometry x="323" y="480" width="80" height="40" as="geometry" />
        </mxCell>
        <mxCell id="Ad5m46oeOHFFpSQFAjDd-93" style="edgeStyle=orthogonalEdgeStyle;rounded=0;orthogonalLoop=1;jettySize=auto;html=1;entryX=0.5;entryY=1;entryDx=0;entryDy=0;" edge="1" parent="1" source="Ad5m46oeOHFFpSQFAjDd-29" target="Ad5m46oeOHFFpSQFAjDd-10">
          <mxGeometry relative="1" as="geometry" />
        </mxCell>
        <mxCell id="Ad5m46oeOHFFpSQFAjDd-29" value="&lt;u&gt;trainerID&lt;/u&gt;" style="rounded=0;whiteSpace=wrap;html=1;" vertex="1" parent="1">
          <mxGeometry x="403" y="480" width="80" height="40" as="geometry" />
        </mxCell>
        <mxCell id="Ad5m46oeOHFFpSQFAjDd-30" value="&lt;div style=&quot;font-family: Consolas, &amp;quot;Courier New&amp;quot;, monospace; line-height: 19px; white-space-collapse: preserve;&quot;&gt;&lt;font style=&quot;font-size: 18px;&quot;&gt;trainers&lt;/font&gt;&lt;/div&gt;" style="text;html=1;align=center;verticalAlign=middle;resizable=0;points=[];autosize=1;strokeColor=none;fillColor=none;fontSize=18;fontColor=default;" vertex="1" parent="1">
          <mxGeometry x="208" y="485" width="100" height="30" as="geometry" />
        </mxCell>
        <mxCell id="Ad5m46oeOHFFpSQFAjDd-31" value="&lt;u&gt;availabilityId&lt;/u&gt;" style="rounded=0;whiteSpace=wrap;html=1;" vertex="1" parent="1">
          <mxGeometry x="180" y="660" width="80" height="40" as="geometry" />
        </mxCell>
        <mxCell id="Ad5m46oeOHFFpSQFAjDd-32" value="date" style="rounded=0;whiteSpace=wrap;html=1;" vertex="1" parent="1">
          <mxGeometry x="260" y="660" width="80" height="40" as="geometry" />
        </mxCell>
        <mxCell id="Ad5m46oeOHFFpSQFAjDd-33" value="start_time" style="rounded=0;whiteSpace=wrap;html=1;" vertex="1" parent="1">
          <mxGeometry x="340" y="660" width="80" height="40" as="geometry" />
        </mxCell>
        <mxCell id="Ad5m46oeOHFFpSQFAjDd-34" value="end_time" style="rounded=0;whiteSpace=wrap;html=1;" vertex="1" parent="1">
          <mxGeometry x="420" y="660" width="80" height="40" as="geometry" />
        </mxCell>
        <mxCell id="Ad5m46oeOHFFpSQFAjDd-115" style="edgeStyle=orthogonalEdgeStyle;rounded=0;orthogonalLoop=1;jettySize=auto;html=1;exitX=1;exitY=0.5;exitDx=0;exitDy=0;entryX=1;entryY=0.75;entryDx=0;entryDy=0;" edge="1" parent="1" source="Ad5m46oeOHFFpSQFAjDd-35" target="Ad5m46oeOHFFpSQFAjDd-29">
          <mxGeometry relative="1" as="geometry" />
        </mxCell>
        <mxCell id="Ad5m46oeOHFFpSQFAjDd-35" value="trainerID" style="rounded=0;whiteSpace=wrap;html=1;" vertex="1" parent="1">
          <mxGeometry x="500" y="660" width="80" height="40" as="geometry" />
        </mxCell>
        <mxCell id="Ad5m46oeOHFFpSQFAjDd-36" value="trainer_availability" style="text;html=1;align=center;verticalAlign=middle;resizable=0;points=[];autosize=1;strokeColor=none;fillColor=none;fontSize=18;" vertex="1" parent="1">
          <mxGeometry x="9" y="660" width="170" height="40" as="geometry" />
        </mxCell>
        <mxCell id="Ad5m46oeOHFFpSQFAjDd-37" value="&lt;u&gt;adminId&lt;/u&gt;" style="rounded=0;whiteSpace=wrap;html=1;" vertex="1" parent="1">
          <mxGeometry x="185" y="1160" width="80" height="40" as="geometry" />
        </mxCell>
        <mxCell id="Ad5m46oeOHFFpSQFAjDd-38" value="admins" style="text;html=1;align=center;verticalAlign=middle;resizable=0;points=[];autosize=1;strokeColor=none;fillColor=none;fontSize=18;" vertex="1" parent="1">
          <mxGeometry x="59" y="1160" width="80" height="40" as="geometry" />
        </mxCell>
        <mxCell id="Ad5m46oeOHFFpSQFAjDd-41" value="name" style="rounded=0;whiteSpace=wrap;html=1;" vertex="1" parent="1">
          <mxGeometry x="185" y="750" width="80" height="40" as="geometry" />
        </mxCell>
        <mxCell id="Ad5m46oeOHFFpSQFAjDd-42" value="description" style="rounded=0;whiteSpace=wrap;html=1;" vertex="1" parent="1">
          <mxGeometry x="265" y="750" width="80" height="40" as="geometry" />
        </mxCell>
        <mxCell id="Ad5m46oeOHFFpSQFAjDd-43" value="type" style="rounded=0;whiteSpace=wrap;html=1;" vertex="1" parent="1">
          <mxGeometry x="345" y="750" width="80" height="40" as="geometry" />
        </mxCell>
        <mxCell id="Ad5m46oeOHFFpSQFAjDd-44" value="price" style="rounded=0;whiteSpace=wrap;html=1;" vertex="1" parent="1">
          <mxGeometry x="425" y="750" width="80" height="40" as="geometry" />
        </mxCell>
        <mxCell id="Ad5m46oeOHFFpSQFAjDd-45" value="&lt;u&gt;classId&lt;/u&gt;" style="rounded=0;whiteSpace=wrap;html=1;" vertex="1" parent="1">
          <mxGeometry x="505" y="750" width="80" height="40" as="geometry" />
        </mxCell>
        <mxCell id="Ad5m46oeOHFFpSQFAjDd-97" style="edgeStyle=orthogonalEdgeStyle;rounded=0;orthogonalLoop=1;jettySize=auto;html=1;exitX=1;exitY=0.5;exitDx=0;exitDy=0;entryX=1;entryY=0.25;entryDx=0;entryDy=0;" edge="1" parent="1" source="Ad5m46oeOHFFpSQFAjDd-46" target="Ad5m46oeOHFFpSQFAjDd-29">
          <mxGeometry relative="1" as="geometry" />
        </mxCell>
        <mxCell id="Ad5m46oeOHFFpSQFAjDd-46" value="trainerID" style="rounded=0;whiteSpace=wrap;html=1;" vertex="1" parent="1">
          <mxGeometry x="585" y="750" width="80" height="40" as="geometry" />
        </mxCell>
        <mxCell id="Ad5m46oeOHFFpSQFAjDd-47" value="classes" style="text;html=1;align=center;verticalAlign=middle;resizable=0;points=[];autosize=1;strokeColor=none;fillColor=none;fontSize=18;" vertex="1" parent="1">
          <mxGeometry x="70" y="750" width="80" height="40" as="geometry" />
        </mxCell>
        <mxCell id="Ad5m46oeOHFFpSQFAjDd-48" value="name" style="rounded=0;whiteSpace=wrap;html=1;" vertex="1" parent="1">
          <mxGeometry x="180" y="930" width="80" height="40" as="geometry" />
        </mxCell>
        <mxCell id="Ad5m46oeOHFFpSQFAjDd-49" value="status" style="rounded=0;whiteSpace=wrap;html=1;" vertex="1" parent="1">
          <mxGeometry x="260" y="930" width="80" height="40" as="geometry" />
        </mxCell>
        <mxCell id="Ad5m46oeOHFFpSQFAjDd-50" value="&lt;u&gt;roomID&lt;/u&gt;" style="rounded=0;whiteSpace=wrap;html=1;" vertex="1" parent="1">
          <mxGeometry x="340" y="930" width="80" height="40" as="geometry" />
        </mxCell>
        <mxCell id="Ad5m46oeOHFFpSQFAjDd-51" value="rooms" style="text;html=1;align=center;verticalAlign=middle;resizable=0;points=[];autosize=1;strokeColor=none;fillColor=none;fontSize=18;" vertex="1" parent="1">
          <mxGeometry x="70" y="930" width="70" height="40" as="geometry" />
        </mxCell>
        <mxCell id="Ad5m46oeOHFFpSQFAjDd-52" value="name" style="rounded=0;whiteSpace=wrap;html=1;" vertex="1" parent="1">
          <mxGeometry x="184" y="1080" width="80" height="40" as="geometry" />
        </mxCell>
        <mxCell id="Ad5m46oeOHFFpSQFAjDd-53" value="status" style="rounded=0;whiteSpace=wrap;html=1;" vertex="1" parent="1">
          <mxGeometry x="264" y="1080" width="80" height="40" as="geometry" />
        </mxCell>
        <mxCell id="Ad5m46oeOHFFpSQFAjDd-54" value="&lt;u&gt;equipmentId&lt;/u&gt;" style="rounded=0;whiteSpace=wrap;html=1;" vertex="1" parent="1">
          <mxGeometry x="344" y="1080" width="80" height="40" as="geometry" />
        </mxCell>
        <mxCell id="Ad5m46oeOHFFpSQFAjDd-56" value="equipments" style="text;html=1;align=center;verticalAlign=middle;resizable=0;points=[];autosize=1;strokeColor=none;fillColor=none;fontSize=18;" vertex="1" parent="1">
          <mxGeometry x="49" y="1080" width="120" height="40" as="geometry" />
        </mxCell>
        <mxCell id="Ad5m46oeOHFFpSQFAjDd-57" value="date" style="rounded=0;whiteSpace=wrap;html=1;" vertex="1" parent="1">
          <mxGeometry x="185" y="850" width="80" height="40" as="geometry" />
        </mxCell>
        <mxCell id="Ad5m46oeOHFFpSQFAjDd-58" value="start_time" style="rounded=0;whiteSpace=wrap;html=1;" vertex="1" parent="1">
          <mxGeometry x="265" y="850" width="80" height="40" as="geometry" />
        </mxCell>
        <mxCell id="Ad5m46oeOHFFpSQFAjDd-59" value="duration" style="rounded=0;whiteSpace=wrap;html=1;" vertex="1" parent="1">
          <mxGeometry x="345" y="850" width="80" height="40" as="geometry" />
        </mxCell>
        <mxCell id="Ad5m46oeOHFFpSQFAjDd-60" value="status" style="rounded=0;whiteSpace=wrap;html=1;" vertex="1" parent="1">
          <mxGeometry x="425" y="850" width="80" height="40" as="geometry" />
        </mxCell>
        <mxCell id="Ad5m46oeOHFFpSQFAjDd-113" style="edgeStyle=orthogonalEdgeStyle;rounded=0;orthogonalLoop=1;jettySize=auto;html=1;exitX=0.5;exitY=1;exitDx=0;exitDy=0;entryX=1;entryY=0.5;entryDx=0;entryDy=0;" edge="1" parent="1" source="Ad5m46oeOHFFpSQFAjDd-61" target="Ad5m46oeOHFFpSQFAjDd-50">
          <mxGeometry relative="1" as="geometry" />
        </mxCell>
        <mxCell id="Ad5m46oeOHFFpSQFAjDd-61" value="roomID" style="rounded=0;whiteSpace=wrap;html=1;" vertex="1" parent="1">
          <mxGeometry x="505" y="850" width="80" height="40" as="geometry" />
        </mxCell>
        <mxCell id="Ad5m46oeOHFFpSQFAjDd-62" value="classId" style="rounded=0;whiteSpace=wrap;html=1;" vertex="1" parent="1">
          <mxGeometry x="585" y="850" width="80" height="40" as="geometry" />
        </mxCell>
        <mxCell id="Ad5m46oeOHFFpSQFAjDd-63" value="&lt;u&gt;scheduleID&lt;/u&gt;" style="rounded=0;whiteSpace=wrap;html=1;" vertex="1" parent="1">
          <mxGeometry x="665" y="850" width="80" height="40" as="geometry" />
        </mxCell>
        <mxCell id="Ad5m46oeOHFFpSQFAjDd-64" value="schedules" style="text;html=1;align=center;verticalAlign=middle;resizable=0;points=[];autosize=1;strokeColor=none;fillColor=none;fontSize=18;" vertex="1" parent="1">
          <mxGeometry x="60" y="850" width="100" height="40" as="geometry" />
        </mxCell>
        <mxCell id="Ad5m46oeOHFFpSQFAjDd-116" style="edgeStyle=orthogonalEdgeStyle;rounded=0;orthogonalLoop=1;jettySize=auto;html=1;exitX=0.5;exitY=0;exitDx=0;exitDy=0;entryX=0.25;entryY=1;entryDx=0;entryDy=0;" edge="1" parent="1" source="Ad5m46oeOHFFpSQFAjDd-69" target="Ad5m46oeOHFFpSQFAjDd-29">
          <mxGeometry relative="1" as="geometry" />
        </mxCell>
        <mxCell id="Ad5m46oeOHFFpSQFAjDd-69" value="&lt;u&gt;trainerID&lt;/u&gt;" style="rounded=0;whiteSpace=wrap;html=1;" vertex="1" parent="1">
          <mxGeometry x="367" y="570" width="80" height="40" as="geometry" />
        </mxCell>
        <mxCell id="Ad5m46oeOHFFpSQFAjDd-117" style="edgeStyle=orthogonalEdgeStyle;rounded=0;orthogonalLoop=1;jettySize=auto;html=1;exitX=1;exitY=0.5;exitDx=0;exitDy=0;entryX=0.5;entryY=0;entryDx=0;entryDy=0;" edge="1" parent="1" source="Ad5m46oeOHFFpSQFAjDd-70" target="Ad5m46oeOHFFpSQFAjDd-63">
          <mxGeometry relative="1" as="geometry" />
        </mxCell>
        <mxCell id="Ad5m46oeOHFFpSQFAjDd-70" value="&lt;u&gt;scheduleID&lt;/u&gt;" style="rounded=0;whiteSpace=wrap;html=1;" vertex="1" parent="1">
          <mxGeometry x="447" y="570" width="80" height="40" as="geometry" />
        </mxCell>
        <mxCell id="Ad5m46oeOHFFpSQFAjDd-72" value="trainer_schedule" style="text;html=1;align=center;verticalAlign=middle;resizable=0;points=[];autosize=1;strokeColor=none;fillColor=none;fontSize=18;" vertex="1" parent="1">
          <mxGeometry x="110" y="570" width="160" height="40" as="geometry" />
        </mxCell>
        <mxCell id="Ad5m46oeOHFFpSQFAjDd-73" value="invoiceID&lt;br&gt;(UNIQUE)" style="rounded=0;whiteSpace=wrap;html=1;" vertex="1" parent="1">
          <mxGeometry x="185" y="1010" width="80" height="40" as="geometry" />
        </mxCell>
        <mxCell id="Ad5m46oeOHFFpSQFAjDd-74" value="amount" style="rounded=0;whiteSpace=wrap;html=1;" vertex="1" parent="1">
          <mxGeometry x="265" y="1010" width="80" height="40" as="geometry" />
        </mxCell>
        <mxCell id="Ad5m46oeOHFFpSQFAjDd-75" value="date" style="rounded=0;whiteSpace=wrap;html=1;" vertex="1" parent="1">
          <mxGeometry x="345" y="1010" width="80" height="40" as="geometry" />
        </mxCell>
        <mxCell id="Ad5m46oeOHFFpSQFAjDd-76" value="status" style="rounded=0;whiteSpace=wrap;html=1;" vertex="1" parent="1">
          <mxGeometry x="425" y="1010" width="80" height="40" as="geometry" />
        </mxCell>
        <mxCell id="Ad5m46oeOHFFpSQFAjDd-119" style="edgeStyle=orthogonalEdgeStyle;rounded=0;orthogonalLoop=1;jettySize=auto;html=1;exitX=0.75;exitY=0;exitDx=0;exitDy=0;entryX=0.25;entryY=1;entryDx=0;entryDy=0;" edge="1" parent="1" source="Ad5m46oeOHFFpSQFAjDd-77" target="Ad5m46oeOHFFpSQFAjDd-63">
          <mxGeometry relative="1" as="geometry" />
        </mxCell>
        <mxCell id="Ad5m46oeOHFFpSQFAjDd-77" value="&lt;u&gt;scheduleID&lt;/u&gt;" style="rounded=0;whiteSpace=wrap;html=1;" vertex="1" parent="1">
          <mxGeometry x="505" y="1010" width="80" height="40" as="geometry" />
        </mxCell>
        <mxCell id="Ad5m46oeOHFFpSQFAjDd-123" style="edgeStyle=orthogonalEdgeStyle;rounded=0;orthogonalLoop=1;jettySize=auto;html=1;exitX=1;exitY=0.5;exitDx=0;exitDy=0;entryX=1;entryY=0.75;entryDx=0;entryDy=0;" edge="1" parent="1" source="Ad5m46oeOHFFpSQFAjDd-78" target="Ad5m46oeOHFFpSQFAjDd-13">
          <mxGeometry relative="1" as="geometry">
            <Array as="points">
              <mxPoint x="810" y="1030" />
              <mxPoint x="810" y="354" />
            </Array>
          </mxGeometry>
        </mxCell>
        <mxCell id="Ad5m46oeOHFFpSQFAjDd-78" value="&lt;u&gt;memberID&lt;/u&gt;" style="rounded=0;whiteSpace=wrap;html=1;" vertex="1" parent="1">
          <mxGeometry x="585" y="1010" width="80" height="40" as="geometry" />
        </mxCell>
        <mxCell id="Ad5m46oeOHFFpSQFAjDd-79" value="invoices" style="text;html=1;align=center;verticalAlign=middle;resizable=0;points=[];autosize=1;strokeColor=none;fillColor=none;fontSize=18;" vertex="1" parent="1">
          <mxGeometry x="66" y="1010" width="90" height="40" as="geometry" />
        </mxCell>
        <mxCell id="Ad5m46oeOHFFpSQFAjDd-80" value="name" style="rounded=0;whiteSpace=wrap;html=1;" vertex="1" parent="1">
          <mxGeometry x="185" y="180" width="80" height="40" as="geometry" />
        </mxCell>
        <mxCell id="Ad5m46oeOHFFpSQFAjDd-81" value="description" style="rounded=0;whiteSpace=wrap;html=1;" vertex="1" parent="1">
          <mxGeometry x="265" y="180" width="80" height="40" as="geometry" />
        </mxCell>
        <mxCell id="Ad5m46oeOHFFpSQFAjDd-82" value="type" style="rounded=0;whiteSpace=wrap;html=1;" vertex="1" parent="1">
          <mxGeometry x="345" y="180" width="80" height="40" as="geometry" />
        </mxCell>
        <mxCell id="Ad5m46oeOHFFpSQFAjDd-121" style="edgeStyle=orthogonalEdgeStyle;rounded=0;orthogonalLoop=1;jettySize=auto;html=1;exitX=0.5;exitY=1;exitDx=0;exitDy=0;entryX=0.5;entryY=0;entryDx=0;entryDy=0;" edge="1" parent="1" source="Ad5m46oeOHFFpSQFAjDd-83" target="Ad5m46oeOHFFpSQFAjDd-88">
          <mxGeometry relative="1" as="geometry" />
        </mxCell>
        <mxCell id="Ad5m46oeOHFFpSQFAjDd-83" value="&lt;u&gt;exerciseid&lt;/u&gt;" style="rounded=0;whiteSpace=wrap;html=1;" vertex="1" parent="1">
          <mxGeometry x="425" y="180" width="80" height="40" as="geometry" />
        </mxCell>
        <mxCell id="Ad5m46oeOHFFpSQFAjDd-84" value="excercises" style="text;html=1;align=center;verticalAlign=middle;resizable=0;points=[];autosize=1;strokeColor=none;fillColor=none;fontSize=18;" vertex="1" parent="1">
          <mxGeometry x="55" y="180" width="110" height="40" as="geometry" />
        </mxCell>
        <mxCell id="Ad5m46oeOHFFpSQFAjDd-85" value="reps" style="rounded=0;whiteSpace=wrap;html=1;" vertex="1" parent="1">
          <mxGeometry x="185" y="250" width="80" height="40" as="geometry" />
        </mxCell>
        <mxCell id="Ad5m46oeOHFFpSQFAjDd-86" value="weight" style="rounded=0;whiteSpace=wrap;html=1;" vertex="1" parent="1">
          <mxGeometry x="265" y="250" width="80" height="40" as="geometry" />
        </mxCell>
        <mxCell id="Ad5m46oeOHFFpSQFAjDd-87" value="&lt;u&gt;start_week&lt;/u&gt;" style="rounded=0;whiteSpace=wrap;html=1;" vertex="1" parent="1">
          <mxGeometry x="345" y="250" width="80" height="40" as="geometry" />
        </mxCell>
        <mxCell id="Ad5m46oeOHFFpSQFAjDd-88" value="&lt;u&gt;exerciseID&lt;/u&gt;" style="rounded=0;whiteSpace=wrap;html=1;" vertex="1" parent="1">
          <mxGeometry x="425" y="250" width="80" height="40" as="geometry" />
        </mxCell>
        <mxCell id="Ad5m46oeOHFFpSQFAjDd-122" style="edgeStyle=orthogonalEdgeStyle;rounded=0;orthogonalLoop=1;jettySize=auto;html=1;exitX=0.5;exitY=1;exitDx=0;exitDy=0;entryX=0.5;entryY=0;entryDx=0;entryDy=0;" edge="1" parent="1" source="Ad5m46oeOHFFpSQFAjDd-89" target="Ad5m46oeOHFFpSQFAjDd-13">
          <mxGeometry relative="1" as="geometry">
            <Array as="points">
              <mxPoint x="545" y="310" />
              <mxPoint x="384" y="310" />
            </Array>
          </mxGeometry>
        </mxCell>
        <mxCell id="Ad5m46oeOHFFpSQFAjDd-89" value="&lt;u&gt;memberID&lt;/u&gt;" style="rounded=0;whiteSpace=wrap;html=1;" vertex="1" parent="1">
          <mxGeometry x="505" y="250" width="80" height="40" as="geometry" />
        </mxCell>
        <mxCell id="Ad5m46oeOHFFpSQFAjDd-90" value="member_exercises" style="text;html=1;align=center;verticalAlign=middle;resizable=0;points=[];autosize=1;strokeColor=none;fillColor=none;fontSize=18;" vertex="1" parent="1">
          <mxGeometry x="7" y="250" width="180" height="40" as="geometry" />
        </mxCell>
        <mxCell id="Ad5m46oeOHFFpSQFAjDd-91" style="edgeStyle=orthogonalEdgeStyle;rounded=0;orthogonalLoop=1;jettySize=auto;html=1;exitX=1;exitY=0.5;exitDx=0;exitDy=0;entryX=0.125;entryY=1;entryDx=0;entryDy=0;entryPerimeter=0;" edge="1" parent="1" source="Ad5m46oeOHFFpSQFAjDd-13" target="Ad5m46oeOHFFpSQFAjDd-10">
          <mxGeometry relative="1" as="geometry" />
        </mxCell>
        <mxCell id="Ad5m46oeOHFFpSQFAjDd-95" style="edgeStyle=orthogonalEdgeStyle;rounded=0;orthogonalLoop=1;jettySize=auto;html=1;exitX=1;exitY=0.5;exitDx=0;exitDy=0;entryX=0.85;entryY=1.075;entryDx=0;entryDy=0;entryPerimeter=0;" edge="1" parent="1" source="Ad5m46oeOHFFpSQFAjDd-37" target="Ad5m46oeOHFFpSQFAjDd-10">
          <mxGeometry relative="1" as="geometry" />
        </mxCell>
        <mxCell id="Ad5m46oeOHFFpSQFAjDd-105" value="&lt;u&gt;memberID&lt;/u&gt;" style="rounded=0;whiteSpace=wrap;html=1;" vertex="1" parent="1">
          <mxGeometry x="331" y="410" width="80" height="40" as="geometry" />
        </mxCell>
        <mxCell id="Ad5m46oeOHFFpSQFAjDd-112" style="edgeStyle=orthogonalEdgeStyle;rounded=0;orthogonalLoop=1;jettySize=auto;html=1;exitX=1;exitY=0.5;exitDx=0;exitDy=0;entryX=1;entryY=0.25;entryDx=0;entryDy=0;" edge="1" parent="1" source="Ad5m46oeOHFFpSQFAjDd-106" target="Ad5m46oeOHFFpSQFAjDd-63">
          <mxGeometry relative="1" as="geometry" />
        </mxCell>
        <mxCell id="Ad5m46oeOHFFpSQFAjDd-106" value="&lt;u&gt;scheduleID&lt;/u&gt;" style="rounded=0;whiteSpace=wrap;html=1;" vertex="1" parent="1">
          <mxGeometry x="411" y="410" width="80" height="40" as="geometry" />
        </mxCell>
        <mxCell id="Ad5m46oeOHFFpSQFAjDd-107" value="member_schedule" style="text;html=1;align=center;verticalAlign=middle;resizable=0;points=[];autosize=1;strokeColor=none;fillColor=none;fontSize=18;" vertex="1" parent="1">
          <mxGeometry x="82" y="410" width="170" height="40" as="geometry" />
        </mxCell>
        <mxCell id="Ad5m46oeOHFFpSQFAjDd-109" style="edgeStyle=orthogonalEdgeStyle;rounded=0;orthogonalLoop=1;jettySize=auto;html=1;exitX=0.5;exitY=0;exitDx=0;exitDy=0;entryX=0.338;entryY=1.075;entryDx=0;entryDy=0;entryPerimeter=0;" edge="1" parent="1" source="Ad5m46oeOHFFpSQFAjDd-105" target="Ad5m46oeOHFFpSQFAjDd-13">
          <mxGeometry relative="1" as="geometry" />
        </mxCell>
      </root>
    </mxGraphModel>
  </diagram>
</mxfile>
